# Tiled2Unity generated file. Do not modify by hand.
# Wavefront file for 'dung_base_up_mesh_0002.obj'

# Vertices (Count = 524)
v -384 -16 0
v -400 -16 0
v -400 0 0
v -384 0 0
v -368 -16 0
v -384 -16 0
v -384 0 0
v -368 0 0
v -352 -16 0
v -368 -16 0
v -368 0 0
v -352 0 0
v -336 -16 0
v -352 -16 0
v -352 0 0
v -336 0 0
v -320 -16 0
v -336 -16 0
v -336 0 0
v -320 0 0
v -304 -16 0
v -320 -16 0
v -320 0 0
v -304 0 0
v -288 -16 0
v -304 -16 0
v -304 0 0
v -288 0 0
v -272 -16 0
v -288 -16 0
v -288 0 0
v -272 0 0
v -256 -16 0
v -272 -16 0
v -272 0 0
v -256 0 0
v -240 -16 0
v -256 -16 0
v -256 0 0
v -240 0 0
v -224 -16 0
v -240 -16 0
v -240 0 0
v -224 0 0
v -208 -16 0
v -224 -16 0
v -224 0 0
v -208 0 0
v -192 -16 0
v -208 -16 0
v -208 0 0
v -192 0 0
v -176 -16 0
v -192 -16 0
v -192 0 0
v -176 0 0
v -160 -16 0
v -176 -16 0
v -176 0 0
v -160 0 0
v -144 -16 0
v -160 -16 0
v -160 0 0
v -144 0 0
v -128 -16 0
v -144 -16 0
v -144 0 0
v -128 0 0
v -112 -16 0
v -128 -16 0
v -128 0 0
v -112 0 0
v -96 -16 0
v -112 -16 0
v -112 0 0
v -96 0 0
v -80 -16 0
v -96 -16 0
v -96 0 0
v -80 0 0
v -64 -16 0
v -80 -16 0
v -80 0 0
v -64 0 0
v -48 -16 0
v -64 -16 0
v -64 0 0
v -48 0 0
v -32 -16 0
v -48 -16 0
v -48 0 0
v -32 0 0
v -16 -16 0
v -32 -16 0
v -32 0 0
v -16 0 0
v 0 -16 0
v -16 -16 0
v -16 0 0
v 0 0 0
v -384 -32 0
v -400 -32 0
v -400 -16 0
v -384 -16 0
v -368 -32 0
v -384 -32 0
v -384 -16 0
v -368 -16 0
v -352 -32 0
v -368 -32 0
v -368 -16 0
v -352 -16 0
v -336 -32 0
v -352 -32 0
v -352 -16 0
v -336 -16 0
v -320 -32 0
v -336 -32 0
v -336 -16 0
v -320 -16 0
v -304 -32 0
v -320 -32 0
v -320 -16 0
v -304 -16 0
v -288 -32 0
v -304 -32 0
v -304 -16 0
v -288 -16 0
v -272 -32 0
v -288 -32 0
v -288 -16 0
v -272 -16 0
v -256 -32 0
v -272 -32 0
v -272 -16 0
v -256 -16 0
v -240 -32 0
v -256 -32 0
v -256 -16 0
v -240 -16 0
v -224 -32 0
v -240 -32 0
v -240 -16 0
v -224 -16 0
v -208 -32 0
v -224 -32 0
v -224 -16 0
v -208 -16 0
v -192 -32 0
v -208 -32 0
v -208 -16 0
v -192 -16 0
v -176 -32 0
v -192 -32 0
v -192 -16 0
v -176 -16 0
v -160 -32 0
v -176 -32 0
v -176 -16 0
v -160 -16 0
v -144 -32 0
v -160 -32 0
v -160 -16 0
v -144 -16 0
v -128 -32 0
v -144 -32 0
v -144 -16 0
v -128 -16 0
v -112 -32 0
v -128 -32 0
v -128 -16 0
v -112 -16 0
v -96 -32 0
v -112 -32 0
v -112 -16 0
v -96 -16 0
v -80 -32 0
v -96 -32 0
v -96 -16 0
v -80 -16 0
v -64 -32 0
v -80 -32 0
v -80 -16 0
v -64 -16 0
v -48 -32 0
v -64 -32 0
v -64 -16 0
v -48 -16 0
v -32 -32 0
v -48 -32 0
v -48 -16 0
v -32 -16 0
v -16 -32 0
v -32 -32 0
v -32 -16 0
v -16 -16 0
v 0 -32 0
v -16 -32 0
v -16 -16 0
v 0 -16 0
v -384 -48 0
v -400 -48 0
v -400 -32 0
v -384 -32 0
v 0 -48 0
v -16 -48 0
v -16 -32 0
v 0 -32 0
v -384 -64 0
v -400 -64 0
v -400 -48 0
v -384 -48 0
v -64 -64 0
v -80 -64 0
v -80 -48 0
v -64 -48 0
v 0 -64 0
v -16 -64 0
v -16 -48 0
v 0 -48 0
v -384 -80 0
v -400 -80 0
v -400 -64 0
v -384 -64 0
v -352 -80 0
v -368 -80 0
v -368 -64 0
v -352 -64 0
v 0 -80 0
v -16 -80 0
v -16 -64 0
v 0 -64 0
v -384 -96 0
v -400 -96 0
v -400 -80 0
v -384 -80 0
v -176 -96 0
v -192 -96 0
v -192 -80 0
v -176 -80 0
v 0 -96 0
v -16 -96 0
v -16 -80 0
v 0 -80 0
v -384 -112 0
v -400 -112 0
v -400 -96 0
v -384 -96 0
v -304 -112 0
v -320 -112 0
v -320 -96 0
v -304 -96 0
v -64 -112 0
v -80 -112 0
v -80 -96 0
v -64 -96 0
v 0 -112 0
v -16 -112 0
v -16 -96 0
v 0 -96 0
v -384 -128 0
v -400 -128 0
v -400 -112 0
v -384 -112 0
v 0 -128 0
v -16 -128 0
v -16 -112 0
v 0 -112 0
v -384 -144 0
v -400 -144 0
v -400 -128 0
v -384 -128 0
v 0 -144 0
v -16 -144 0
v -16 -128 0
v 0 -128 0
v -384 -160 0
v -400 -160 0
v -400 -144 0
v -384 -144 0
v 0 -160 0
v -16 -160 0
v -16 -144 0
v 0 -144 0
v -384 -176 0
v -400 -176 0
v -400 -160 0
v -384 -160 0
v -320 -176 0
v -336 -176 0
v -336 -160 0
v -320 -160 0
v -160 -176 0
v -176 -176 0
v -176 -160 0
v -160 -160 0
v 0 -176 0
v -16 -176 0
v -16 -160 0
v 0 -160 0
v -384 -192 0
v -400 -192 0
v -400 -176 0
v -384 -176 0
v 0 -192 0
v -16 -192 0
v -16 -176 0
v 0 -176 0
v 0 -208 0
v -16 -208 0
v -16 -192 0
v 0 -192 0
v -384 -224 0
v -400 -224 0
v -400 -208 0
v -384 -208 0
v -256 -224 0
v -272 -224 0
v -272 -208 0
v -256 -208 0
v 0 -224 0
v -16 -224 0
v -16 -208 0
v 0 -208 0
v -384 -240 0
v -400 -240 0
v -400 -224 0
v -384 -224 0
v -80 -240 0
v -96 -240 0
v -96 -224 0
v -80 -224 0
v 0 -240 0
v -16 -240 0
v -16 -224 0
v 0 -224 0
v -384 -256 0
v -400 -256 0
v -400 -240 0
v -384 -240 0
v 0 -256 0
v -16 -256 0
v -16 -240 0
v 0 -240 0
v -384 -272 0
v -400 -272 0
v -400 -256 0
v -384 -256 0
v 0 -272 0
v -16 -272 0
v -16 -256 0
v 0 -256 0
v -384 -288 0
v -400 -288 0
v -400 -272 0
v -384 -272 0
v -336 -288 0
v -352 -288 0
v -352 -272 0
v -336 -272 0
v -224 -288 0
v -240 -288 0
v -240 -272 0
v -224 -272 0
v 0 -288 0
v -16 -288 0
v -16 -272 0
v 0 -272 0
v -384 -304 0
v -400 -304 0
v -400 -288 0
v -384 -288 0
v -80 -304 0
v -96 -304 0
v -96 -288 0
v -80 -288 0
v 0 -304 0
v -16 -304 0
v -16 -288 0
v 0 -288 0
v -384 -320 0
v -400 -320 0
v -400 -304 0
v -384 -304 0
v -272 -320 0
v -288 -320 0
v -288 -304 0
v -272 -304 0
v 0 -320 0
v -16 -320 0
v -16 -304 0
v 0 -304 0
v -384 -336 0
v -400 -336 0
v -400 -320 0
v -384 -320 0
v 0 -336 0
v -16 -336 0
v -16 -320 0
v 0 -320 0
v -384 -352 0
v -400 -352 0
v -400 -336 0
v -384 -336 0
v 0 -352 0
v -16 -352 0
v -16 -336 0
v 0 -336 0
v -384 -368 0
v -400 -368 0
v -400 -352 0
v -384 -352 0
v 0 -368 0
v -16 -368 0
v -16 -352 0
v 0 -352 0
v -384 -384 0
v -400 -384 0
v -400 -368 0
v -384 -368 0
v 0 -384 0
v -16 -384 0
v -16 -368 0
v 0 -368 0
v -384 -400 0
v -400 -400 0
v -400 -384 0
v -384 -384 0
v -368 -400 0
v -384 -400 0
v -384 -384 0
v -368 -384 0
v -352 -400 0
v -368 -400 0
v -368 -384 0
v -352 -384 0
v -336 -400 0
v -352 -400 0
v -352 -384 0
v -336 -384 0
v -320 -400 0
v -336 -400 0
v -336 -384 0
v -320 -384 0
v -304 -400 0
v -320 -400 0
v -320 -384 0
v -304 -384 0
v -288 -400 0
v -304 -400 0
v -304 -384 0
v -288 -384 0
v -272 -400 0
v -288 -400 0
v -288 -384 0
v -272 -384 0
v -256 -400 0
v -272 -400 0
v -272 -384 0
v -256 -384 0
v -240 -400 0
v -256 -400 0
v -256 -384 0
v -240 -384 0
v -224 -400 0
v -240 -400 0
v -240 -384 0
v -224 -384 0
v -208 -400 0
v -224 -400 0
v -224 -384 0
v -208 -384 0
v -192 -400 0
v -208 -400 0
v -208 -384 0
v -192 -384 0
v -176 -400 0
v -192 -400 0
v -192 -384 0
v -176 -384 0
v -160 -400 0
v -176 -400 0
v -176 -384 0
v -160 -384 0
v -144 -400 0
v -160 -400 0
v -160 -384 0
v -144 -384 0
v -128 -400 0
v -144 -400 0
v -144 -384 0
v -128 -384 0
v -112 -400 0
v -128 -400 0
v -128 -384 0
v -112 -384 0
v -96 -400 0
v -112 -400 0
v -112 -384 0
v -96 -384 0
v -80 -400 0
v -96 -400 0
v -96 -384 0
v -80 -384 0
v -64 -400 0
v -80 -400 0
v -80 -384 0
v -64 -384 0
v -48 -400 0
v -64 -400 0
v -64 -384 0
v -48 -384 0
v -32 -400 0
v -48 -400 0
v -48 -384 0
v -32 -384 0
v -16 -400 0
v -32 -400 0
v -32 -384 0
v -16 -384 0
v 0 -400 0
v -16 -400 0
v -16 -384 0
v 0 -384 0

# Texture cooridinates (Count = 33)
vt 0.25 0.8
vt 0.275 0.8
vt 0.275 0.84
vt 0.25 0.84
vt 0.25 0.76
vt 0.275 0.76
vt 0.225 0.72
vt 0.25 0.72
vt 0.225 0.76
vt 0.15 0.72
vt 0.175 0.72
vt 0.175 0.76
vt 0.15 0.76
vt 0.225 0.8
vt 0.175 0.8
vt 0.2 0.8
vt 0.2 0.84
vt 0.175 0.84
vt 0.225 0.84
vt 0.125 0.72
vt 0.125 0.76
vt 0.15 0.84
vt 0.175 0.88
vt 0.15 0.88
vt 0.2 0.72
vt 0.2 0.76
vt 0.125 0.84
vt 0.125 0.88
vt 0.15 0.8
vt 0 0.92
vt 0.025 0.92
vt 0.025 0.96
vt 0 0.96

# Normal
vn 0 0 -1

# Mesh description
g dung_base_up_mesh_0002

# Faces
f 1/1/1 2/2/1 3/3/1 4/4/1
f 5/5/1 6/6/1 7/2/1 8/1/1
f 9/5/1 10/6/1 11/2/1 12/1/1
f 13/5/1 14/6/1 15/2/1 16/1/1
f 17/5/1 18/6/1 19/2/1 20/1/1
f 21/5/1 22/6/1 23/2/1 24/1/1
f 25/5/1 26/6/1 27/2/1 28/1/1
f 29/5/1 30/6/1 31/2/1 32/1/1
f 33/5/1 34/6/1 35/2/1 36/1/1
f 37/5/1 38/6/1 39/2/1 40/1/1
f 41/5/1 42/6/1 43/2/1 44/1/1
f 45/5/1 46/6/1 47/2/1 48/1/1
f 49/5/1 50/6/1 51/2/1 52/1/1
f 53/5/1 54/6/1 55/2/1 56/1/1
f 57/5/1 58/6/1 59/2/1 60/1/1
f 61/5/1 62/6/1 63/2/1 64/1/1
f 65/5/1 66/6/1 67/2/1 68/1/1
f 69/5/1 70/6/1 71/2/1 72/1/1
f 73/5/1 74/6/1 75/2/1 76/1/1
f 77/5/1 78/6/1 79/2/1 80/1/1
f 81/5/1 82/6/1 83/2/1 84/1/1
f 85/5/1 86/6/1 87/2/1 88/1/1
f 89/5/1 90/6/1 91/2/1 92/1/1
f 93/5/1 94/6/1 95/2/1 96/1/1
f 97/7/1 98/8/1 99/5/1 100/9/1
f 101/7/1 102/8/1 103/5/1 104/9/1
f 105/10/1 106/11/1 107/12/1 108/13/1
f 109/10/1 110/11/1 111/12/1 112/13/1
f 113/10/1 114/11/1 115/12/1 116/13/1
f 117/10/1 118/11/1 119/12/1 120/13/1
f 121/10/1 122/11/1 123/12/1 124/13/1
f 125/10/1 126/11/1 127/12/1 128/13/1
f 129/10/1 130/11/1 131/12/1 132/13/1
f 133/10/1 134/11/1 135/12/1 136/13/1
f 137/10/1 138/11/1 139/12/1 140/13/1
f 141/10/1 142/11/1 143/12/1 144/13/1
f 145/10/1 146/11/1 147/12/1 148/13/1
f 149/10/1 150/11/1 151/12/1 152/13/1
f 153/10/1 154/11/1 155/12/1 156/13/1
f 157/10/1 158/11/1 159/12/1 160/13/1
f 161/10/1 162/11/1 163/12/1 164/13/1
f 165/10/1 166/11/1 167/12/1 168/13/1
f 169/10/1 170/11/1 171/12/1 172/13/1
f 173/10/1 174/11/1 175/12/1 176/13/1
f 177/10/1 178/11/1 179/12/1 180/13/1
f 181/10/1 182/11/1 183/12/1 184/13/1
f 185/10/1 186/11/1 187/12/1 188/13/1
f 189/10/1 190/11/1 191/12/1 192/13/1
f 193/10/1 194/11/1 195/12/1 196/13/1
f 197/9/1 198/5/1 199/1/1 200/14/1
f 201/15/1 202/16/1 203/17/1 204/18/1
f 205/16/1 206/14/1 207/19/1 208/17/1
f 209/15/1 210/16/1 211/17/1 212/18/1
f 213/20/1 214/10/1 215/13/1 216/21/1
f 217/16/1 218/14/1 219/19/1 220/17/1
f 221/15/1 222/16/1 223/17/1 224/18/1
f 225/22/1 226/18/1 227/23/1 228/24/1
f 229/16/1 230/14/1 231/19/1 232/17/1
f 233/15/1 234/16/1 235/17/1 236/18/1
f 237/20/1 238/10/1 239/13/1 240/21/1
f 241/16/1 242/14/1 243/19/1 244/17/1
f 245/15/1 246/16/1 247/17/1 248/18/1
f 249/22/1 250/18/1 251/23/1 252/24/1
f 253/22/1 254/18/1 255/23/1 256/24/1
f 257/16/1 258/14/1 259/19/1 260/17/1
f 261/15/1 262/16/1 263/17/1 264/18/1
f 265/16/1 266/14/1 267/19/1 268/17/1
f 269/15/1 270/16/1 271/17/1 272/18/1
f 273/16/1 274/14/1 275/19/1 276/17/1
f 277/15/1 278/16/1 279/17/1 280/18/1
f 281/16/1 282/14/1 283/19/1 284/17/1
f 285/11/1 286/25/1 287/26/1 288/12/1
f 289/20/1 290/10/1 291/13/1 292/21/1
f 293/27/1 294/22/1 295/24/1 296/28/1
f 297/16/1 298/14/1 299/19/1 300/17/1
f 301/11/1 302/25/1 303/26/1 304/12/1
f 305/16/1 306/14/1 307/19/1 308/17/1
f 309/16/1 310/14/1 311/19/1 312/17/1
f 313/12/1 314/26/1 315/16/1 316/15/1
f 317/20/1 318/10/1 319/13/1 320/21/1
f 321/16/1 322/14/1 323/19/1 324/17/1
f 325/15/1 326/16/1 327/17/1 328/18/1
f 329/22/1 330/18/1 331/23/1 332/24/1
f 333/16/1 334/14/1 335/19/1 336/17/1
f 337/15/1 338/16/1 339/17/1 340/18/1
f 341/16/1 342/14/1 343/19/1 344/17/1
f 345/15/1 346/16/1 347/17/1 348/18/1
f 349/16/1 350/14/1 351/19/1 352/17/1
f 353/15/1 354/16/1 355/17/1 356/18/1
f 357/27/1 358/22/1 359/24/1 360/28/1
f 361/20/1 362/10/1 363/13/1 364/21/1
f 365/16/1 366/14/1 367/19/1 368/17/1
f 369/15/1 370/16/1 371/17/1 372/18/1
f 373/22/1 374/18/1 375/23/1 376/24/1
f 377/16/1 378/14/1 379/19/1 380/17/1
f 381/15/1 382/16/1 383/17/1 384/18/1
f 385/20/1 386/10/1 387/13/1 388/21/1
f 389/16/1 390/14/1 391/19/1 392/17/1
f 393/15/1 394/16/1 395/17/1 396/18/1
f 397/16/1 398/14/1 399/19/1 400/17/1
f 401/15/1 402/16/1 403/17/1 404/18/1
f 405/16/1 406/14/1 407/19/1 408/17/1
f 409/15/1 410/16/1 411/17/1 412/18/1
f 413/16/1 414/14/1 415/19/1 416/17/1
f 417/15/1 418/16/1 419/17/1 420/18/1
f 421/16/1 422/14/1 423/19/1 424/17/1
f 425/9/1 426/5/1 427/1/1 428/14/1
f 429/13/1 430/12/1 431/15/1 432/29/1
f 433/13/1 434/12/1 435/15/1 436/29/1
f 437/13/1 438/12/1 439/15/1 440/29/1
f 441/13/1 442/12/1 443/15/1 444/29/1
f 445/13/1 446/12/1 447/15/1 448/29/1
f 449/13/1 450/12/1 451/15/1 452/29/1
f 453/13/1 454/12/1 455/15/1 456/29/1
f 457/13/1 458/12/1 459/15/1 460/29/1
f 461/13/1 462/12/1 463/15/1 464/29/1
f 465/13/1 466/12/1 467/15/1 468/29/1
f 469/12/1 470/26/1 471/16/1 472/15/1
f 473/30/1 474/31/1 475/32/1 476/33/1
f 477/26/1 478/9/1 479/14/1 480/16/1
f 481/13/1 482/12/1 483/15/1 484/29/1
f 485/13/1 486/12/1 487/15/1 488/29/1
f 489/13/1 490/12/1 491/15/1 492/29/1
f 493/13/1 494/12/1 495/15/1 496/29/1
f 497/13/1 498/12/1 499/15/1 500/29/1
f 501/13/1 502/12/1 503/15/1 504/29/1
f 505/13/1 506/12/1 507/15/1 508/29/1
f 509/13/1 510/12/1 511/15/1 512/29/1
f 513/13/1 514/12/1 515/15/1 516/29/1
f 517/13/1 518/12/1 519/15/1 520/29/1
f 521/1/1 522/2/1 523/3/1 524/4/1

