# Tiled2Unity generated file. Do not modify by hand.
# Wavefront file for 'overworld_0_1_0_mesh_0002.obj'

# Vertices (Count = 768)
v -384 -16 0
v -400 -16 0
v -400 0 0
v -384 0 0
v -368 -16 0
v -384 -16 0
v -384 0 0
v -368 0 0
v -352 -16 0
v -368 -16 0
v -368 0 0
v -352 0 0
v -336 -16 0
v -352 -16 0
v -352 0 0
v -336 0 0
v -320 -16 0
v -336 -16 0
v -336 0 0
v -320 0 0
v -304 -16 0
v -320 -16 0
v -320 0 0
v -304 0 0
v -288 -16 0
v -304 -16 0
v -304 0 0
v -288 0 0
v -272 -16 0
v -288 -16 0
v -288 0 0
v -272 0 0
v -256 -16 0
v -272 -16 0
v -272 0 0
v -256 0 0
v -240 -16 0
v -256 -16 0
v -256 0 0
v -240 0 0
v -224 -16 0
v -240 -16 0
v -240 0 0
v -224 0 0
v -208 -16 0
v -224 -16 0
v -224 0 0
v -208 0 0
v -192 -16 0
v -208 -16 0
v -208 0 0
v -192 0 0
v -176 -16 0
v -192 -16 0
v -192 0 0
v -176 0 0
v -160 -16 0
v -176 -16 0
v -176 0 0
v -160 0 0
v -144 -16 0
v -160 -16 0
v -160 0 0
v -144 0 0
v -128 -16 0
v -144 -16 0
v -144 0 0
v -128 0 0
v -112 -16 0
v -128 -16 0
v -128 0 0
v -112 0 0
v -96 -16 0
v -112 -16 0
v -112 0 0
v -96 0 0
v -80 -16 0
v -96 -16 0
v -96 0 0
v -80 0 0
v -64 -16 0
v -80 -16 0
v -80 0 0
v -64 0 0
v -48 -16 0
v -64 -16 0
v -64 0 0
v -48 0 0
v -32 -16 0
v -48 -16 0
v -48 0 0
v -32 0 0
v -16 -16 0
v -32 -16 0
v -32 0 0
v -16 0 0
v 0 -16 0
v -16 -16 0
v -16 0 0
v 0 0 0
v -384 -32 0
v -400 -32 0
v -400 -16 0
v -384 -16 0
v -368 -32 0
v -384 -32 0
v -384 -16 0
v -368 -16 0
v -352 -32 0
v -368 -32 0
v -368 -16 0
v -352 -16 0
v -336 -32 0
v -352 -32 0
v -352 -16 0
v -336 -16 0
v -320 -32 0
v -336 -32 0
v -336 -16 0
v -320 -16 0
v -304 -32 0
v -320 -32 0
v -320 -16 0
v -304 -16 0
v -288 -32 0
v -304 -32 0
v -304 -16 0
v -288 -16 0
v -272 -32 0
v -288 -32 0
v -288 -16 0
v -272 -16 0
v -256 -32 0
v -272 -32 0
v -272 -16 0
v -256 -16 0
v -240 -32 0
v -256 -32 0
v -256 -16 0
v -240 -16 0
v -224 -32 0
v -240 -32 0
v -240 -16 0
v -224 -16 0
v -208 -32 0
v -224 -32 0
v -224 -16 0
v -208 -16 0
v -192 -32 0
v -208 -32 0
v -208 -16 0
v -192 -16 0
v -176 -32 0
v -192 -32 0
v -192 -16 0
v -176 -16 0
v -160 -32 0
v -176 -32 0
v -176 -16 0
v -160 -16 0
v -144 -32 0
v -160 -32 0
v -160 -16 0
v -144 -16 0
v -128 -32 0
v -144 -32 0
v -144 -16 0
v -128 -16 0
v -112 -32 0
v -128 -32 0
v -128 -16 0
v -112 -16 0
v -96 -32 0
v -112 -32 0
v -112 -16 0
v -96 -16 0
v -80 -32 0
v -96 -32 0
v -96 -16 0
v -80 -16 0
v -64 -32 0
v -80 -32 0
v -80 -16 0
v -64 -16 0
v -48 -32 0
v -64 -32 0
v -64 -16 0
v -48 -16 0
v -32 -32 0
v -48 -32 0
v -48 -16 0
v -32 -16 0
v -16 -32 0
v -32 -32 0
v -32 -16 0
v -16 -16 0
v 0 -32 0
v -16 -32 0
v -16 -16 0
v 0 -16 0
v -384 -48 0
v -400 -48 0
v -400 -32 0
v -384 -32 0
v -368 -48 0
v -384 -48 0
v -384 -32 0
v -368 -32 0
v -352 -48 0
v -368 -48 0
v -368 -32 0
v -352 -32 0
v -336 -48 0
v -352 -48 0
v -352 -32 0
v -336 -32 0
v -320 -48 0
v -336 -48 0
v -336 -32 0
v -320 -32 0
v -304 -48 0
v -320 -48 0
v -320 -32 0
v -304 -32 0
v -288 -48 0
v -304 -48 0
v -304 -32 0
v -288 -32 0
v -272 -48 0
v -288 -48 0
v -288 -32 0
v -272 -32 0
v -256 -48 0
v -272 -48 0
v -272 -32 0
v -256 -32 0
v -240 -48 0
v -256 -48 0
v -256 -32 0
v -240 -32 0
v -224 -48 0
v -240 -48 0
v -240 -32 0
v -224 -32 0
v -208 -48 0
v -224 -48 0
v -224 -32 0
v -208 -32 0
v -192 -48 0
v -208 -48 0
v -208 -32 0
v -192 -32 0
v -176 -48 0
v -192 -48 0
v -192 -32 0
v -176 -32 0
v -160 -48 0
v -176 -48 0
v -176 -32 0
v -160 -32 0
v -144 -48 0
v -160 -48 0
v -160 -32 0
v -144 -32 0
v -128 -48 0
v -144 -48 0
v -144 -32 0
v -128 -32 0
v -112 -48 0
v -128 -48 0
v -128 -32 0
v -112 -32 0
v -96 -48 0
v -112 -48 0
v -112 -32 0
v -96 -32 0
v -80 -48 0
v -96 -48 0
v -96 -32 0
v -80 -32 0
v -64 -48 0
v -80 -48 0
v -80 -32 0
v -64 -32 0
v -48 -48 0
v -64 -48 0
v -64 -32 0
v -48 -32 0
v -32 -48 0
v -48 -48 0
v -48 -32 0
v -32 -32 0
v -16 -48 0
v -32 -48 0
v -32 -32 0
v -16 -32 0
v 0 -48 0
v -16 -48 0
v -16 -32 0
v 0 -32 0
v -384 -64 0
v -400 -64 0
v -400 -48 0
v -384 -48 0
v -288 -64 0
v -304 -64 0
v -304 -48 0
v -288 -48 0
v -272 -64 0
v -288 -64 0
v -288 -48 0
v -272 -48 0
v -256 -64 0
v -272 -64 0
v -272 -48 0
v -256 -48 0
v -240 -64 0
v -256 -64 0
v -256 -48 0
v -240 -48 0
v -224 -64 0
v -240 -64 0
v -240 -48 0
v -224 -48 0
v -208 -64 0
v -224 -64 0
v -224 -48 0
v -208 -48 0
v -192 -64 0
v -208 -64 0
v -208 -48 0
v -192 -48 0
v -176 -64 0
v -192 -64 0
v -192 -48 0
v -176 -48 0
v -160 -64 0
v -176 -64 0
v -176 -48 0
v -160 -48 0
v -144 -64 0
v -160 -64 0
v -160 -48 0
v -144 -48 0
v -128 -64 0
v -144 -64 0
v -144 -48 0
v -128 -48 0
v -112 -64 0
v -128 -64 0
v -128 -48 0
v -112 -48 0
v -96 -64 0
v -112 -64 0
v -112 -48 0
v -96 -48 0
v 0 -64 0
v -16 -64 0
v -16 -48 0
v 0 -48 0
v -384 -80 0
v -400 -80 0
v -400 -64 0
v -384 -64 0
v -288 -80 0
v -304 -80 0
v -304 -64 0
v -288 -64 0
v -272 -80 0
v -288 -80 0
v -288 -64 0
v -272 -64 0
v -256 -80 0
v -272 -80 0
v -272 -64 0
v -256 -64 0
v -240 -80 0
v -256 -80 0
v -256 -64 0
v -240 -64 0
v -224 -80 0
v -240 -80 0
v -240 -64 0
v -224 -64 0
v -208 -80 0
v -224 -80 0
v -224 -64 0
v -208 -64 0
v -192 -80 0
v -208 -80 0
v -208 -64 0
v -192 -64 0
v -176 -80 0
v -192 -80 0
v -192 -64 0
v -176 -64 0
v -160 -80 0
v -176 -80 0
v -176 -64 0
v -160 -64 0
v -144 -80 0
v -160 -80 0
v -160 -64 0
v -144 -64 0
v -128 -80 0
v -144 -80 0
v -144 -64 0
v -128 -64 0
v -112 -80 0
v -128 -80 0
v -128 -64 0
v -112 -64 0
v -96 -80 0
v -112 -80 0
v -112 -64 0
v -96 -64 0
v 0 -80 0
v -16 -80 0
v -16 -64 0
v 0 -64 0
v -384 -96 0
v -400 -96 0
v -400 -80 0
v -384 -80 0
v -288 -96 0
v -304 -96 0
v -304 -80 0
v -288 -80 0
v -272 -96 0
v -288 -96 0
v -288 -80 0
v -272 -80 0
v -256 -96 0
v -272 -96 0
v -272 -80 0
v -256 -80 0
v -240 -96 0
v -256 -96 0
v -256 -80 0
v -240 -80 0
v -224 -96 0
v -240 -96 0
v -240 -80 0
v -224 -80 0
v -208 -96 0
v -224 -96 0
v -224 -80 0
v -208 -80 0
v -192 -96 0
v -208 -96 0
v -208 -80 0
v -192 -80 0
v -176 -96 0
v -192 -96 0
v -192 -80 0
v -176 -80 0
v -160 -96 0
v -176 -96 0
v -176 -80 0
v -160 -80 0
v -144 -96 0
v -160 -96 0
v -160 -80 0
v -144 -80 0
v -128 -96 0
v -144 -96 0
v -144 -80 0
v -128 -80 0
v -112 -96 0
v -128 -96 0
v -128 -80 0
v -112 -80 0
v -96 -96 0
v -112 -96 0
v -112 -80 0
v -96 -80 0
v 0 -96 0
v -16 -96 0
v -16 -80 0
v 0 -80 0
v -384 -112 0
v -400 -112 0
v -400 -96 0
v -384 -96 0
v -288 -112 0
v -304 -112 0
v -304 -96 0
v -288 -96 0
v -272 -112 0
v -288 -112 0
v -288 -96 0
v -272 -96 0
v -256 -112 0
v -272 -112 0
v -272 -96 0
v -256 -96 0
v -240 -112 0
v -256 -112 0
v -256 -96 0
v -240 -96 0
v -224 -112 0
v -240 -112 0
v -240 -96 0
v -224 -96 0
v -208 -112 0
v -224 -112 0
v -224 -96 0
v -208 -96 0
v -192 -112 0
v -208 -112 0
v -208 -96 0
v -192 -96 0
v -176 -112 0
v -192 -112 0
v -192 -96 0
v -176 -96 0
v -160 -112 0
v -176 -112 0
v -176 -96 0
v -160 -96 0
v -144 -112 0
v -160 -112 0
v -160 -96 0
v -144 -96 0
v -128 -112 0
v -144 -112 0
v -144 -96 0
v -128 -96 0
v -112 -112 0
v -128 -112 0
v -128 -96 0
v -112 -96 0
v -96 -112 0
v -112 -112 0
v -112 -96 0
v -96 -96 0
v 0 -112 0
v -16 -112 0
v -16 -96 0
v 0 -96 0
v -384 -128 0
v -400 -128 0
v -400 -112 0
v -384 -112 0
v -384 -144 0
v -400 -144 0
v -400 -128 0
v -384 -128 0
v -384 -160 0
v -400 -160 0
v -400 -144 0
v -384 -144 0
v -384 -176 0
v -400 -176 0
v -400 -160 0
v -384 -160 0
v -16 -176 0
v -32 -176 0
v -32 -160 0
v -16 -160 0
v 0 -176 0
v -16 -176 0
v -16 -160 0
v 0 -160 0
v -384 -192 0
v -400 -192 0
v -400 -176 0
v -384 -176 0
v 0 -192 0
v -16 -192 0
v -16 -176 0
v 0 -176 0
v -384 -208 0
v -400 -208 0
v -400 -192 0
v -384 -192 0
v 0 -208 0
v -16 -208 0
v -16 -192 0
v 0 -192 0
v -384 -224 0
v -400 -224 0
v -400 -208 0
v -384 -208 0
v 0 -224 0
v -16 -224 0
v -16 -208 0
v 0 -208 0
v -384 -240 0
v -400 -240 0
v -400 -224 0
v -384 -224 0
v 0 -240 0
v -16 -240 0
v -16 -224 0
v 0 -224 0
v -384 -256 0
v -400 -256 0
v -400 -240 0
v -384 -240 0
v 0 -256 0
v -16 -256 0
v -16 -240 0
v 0 -240 0
v -384 -272 0
v -400 -272 0
v -400 -256 0
v -384 -256 0
v 0 -272 0
v -16 -272 0
v -16 -256 0
v 0 -256 0
v -384 -288 0
v -400 -288 0
v -400 -272 0
v -384 -272 0
v 0 -288 0
v -16 -288 0
v -16 -272 0
v 0 -272 0
v -384 -304 0
v -400 -304 0
v -400 -288 0
v -384 -288 0
v 0 -304 0
v -16 -304 0
v -16 -288 0
v 0 -288 0
v -384 -320 0
v -400 -320 0
v -400 -304 0
v -384 -304 0
v 0 -320 0
v -16 -320 0
v -16 -304 0
v 0 -304 0
v -384 -336 0
v -400 -336 0
v -400 -320 0
v -384 -320 0
v 0 -336 0
v -16 -336 0
v -16 -320 0
v 0 -320 0
v -384 -352 0
v -400 -352 0
v -400 -336 0
v -384 -336 0
v 0 -352 0
v -16 -352 0
v -16 -336 0
v 0 -336 0
v -384 -368 0
v -400 -368 0
v -400 -352 0
v -384 -352 0
v 0 -368 0
v -16 -368 0
v -16 -352 0
v 0 -352 0
v -384 -384 0
v -400 -384 0
v -400 -368 0
v -384 -368 0
v 0 -384 0
v -16 -384 0
v -16 -368 0
v 0 -368 0
v -384 -400 0
v -400 -400 0
v -400 -384 0
v -384 -384 0
v -368 -400 0
v -384 -400 0
v -384 -384 0
v -368 -384 0
v -352 -400 0
v -368 -400 0
v -368 -384 0
v -352 -384 0
v -336 -400 0
v -352 -400 0
v -352 -384 0
v -336 -384 0
v -320 -400 0
v -336 -400 0
v -336 -384 0
v -320 -384 0
v -304 -400 0
v -320 -400 0
v -320 -384 0
v -304 -384 0
v -288 -400 0
v -304 -400 0
v -304 -384 0
v -288 -384 0
v -272 -400 0
v -288 -400 0
v -288 -384 0
v -272 -384 0
v -256 -400 0
v -272 -400 0
v -272 -384 0
v -256 -384 0
v -240 -400 0
v -256 -400 0
v -256 -384 0
v -240 -384 0
v -224 -400 0
v -240 -400 0
v -240 -384 0
v -224 -384 0
v -208 -400 0
v -224 -400 0
v -224 -384 0
v -208 -384 0
v -192 -400 0
v -208 -400 0
v -208 -384 0
v -192 -384 0
v -176 -400 0
v -192 -400 0
v -192 -384 0
v -176 -384 0
v -160 -400 0
v -176 -400 0
v -176 -384 0
v -160 -384 0
v -144 -400 0
v -160 -400 0
v -160 -384 0
v -144 -384 0
v -128 -400 0
v -144 -400 0
v -144 -384 0
v -128 -384 0
v -112 -400 0
v -128 -400 0
v -128 -384 0
v -112 -384 0
v -96 -400 0
v -112 -400 0
v -112 -384 0
v -96 -384 0
v -80 -400 0
v -96 -400 0
v -96 -384 0
v -80 -384 0
v -64 -400 0
v -80 -400 0
v -80 -384 0
v -64 -384 0
v -48 -400 0
v -64 -400 0
v -64 -384 0
v -48 -384 0
v -32 -400 0
v -48 -400 0
v -48 -384 0
v -32 -384 0
v -16 -400 0
v -32 -400 0
v -32 -384 0
v -16 -384 0
v 0 -400 0
v -16 -400 0
v -16 -384 0
v 0 -384 0

# Texture cooridinates (Count = 63)
vt 0.15 0.4722222
vt 0.175 0.4722222
vt 0.175 0.5
vt 0.15 0.5
vt 0.125 0.6666666
vt 0.15 0.6666666
vt 0.15 0.6944444
vt 0.125 0.6944444
vt 0 0.7222222
vt 0.025 0.7222222
vt 0.025 0.75
vt 0 0.75
vt 0.125 0.7222222
vt 0.15 0.7222222
vt 0.15 0.75
vt 0.125 0.75
vt 0.05 0.7222222
vt 0.05 0.75
vt 0.1 0.6666666
vt 0.1 0.6944444
vt 0.2 0.4722222
vt 0.2 0.5
vt 0.125 0.6388889
vt 0.15 0.6388889
vt 0.175 0.6944444
vt 0.175 0.7222222
vt 0.2 0.7222222
vt 0.2 0.75
vt 0.175 0.75
vt 0.2 0.6944444
vt 0.225 0.7222222
vt 0.225 0.75
vt 0.225 0.6944444
vt 0.1 0.7222222
vt 0.1 0.6388889
vt 0.125 0.5833334
vt 0.15 0.5833334
vt 0.15 0.6111111
vt 0.125 0.6111111
vt 0.1 0.5833334
vt 0.1 0.6111111
vt 0.175 0.6666666
vt 0.175 0.6388889
vt 0.175 0.5833334
vt 0.175 0.6111111
vt 0.2 0.6388889
vt 0.2 0.6666666
vt 0.175 0.5277778
vt 0.15 0.5277778
vt 0.025 0.1111111
vt 0.05 0.1111111
vt 0.05 0.1388889
vt 0.025 0.1388889
vt 0.175 0.5555556
vt 0.15 0.5555556
vt 0.075 0.5277778
vt 0.1 0.5277778
vt 0.1 0.5555556
vt 0.075 0.5555556
vt 0.125 0.4722222
vt 0.125 0.5
vt 0.125 0.5277778
vt 0.125 0.5555556

# Normal
vn 0 0 -1

# Mesh description
g overworld_0_1_0_mesh_0002

# Faces
f 1/1/1 2/2/1 3/3/1 4/4/1
f 5/5/1 6/6/1 7/7/1 8/8/1
f 9/5/1 10/6/1 11/7/1 12/8/1
f 13/5/1 14/6/1 15/7/1 16/8/1
f 17/5/1 18/6/1 19/7/1 20/8/1
f 21/5/1 22/6/1 23/7/1 24/8/1
f 25/9/1 26/10/1 27/11/1 28/12/1
f 29/13/1 30/14/1 31/15/1 32/16/1
f 33/13/1 34/14/1 35/15/1 36/16/1
f 37/13/1 38/14/1 39/15/1 40/16/1
f 41/13/1 42/14/1 43/15/1 44/16/1
f 45/13/1 46/14/1 47/15/1 48/16/1
f 49/13/1 50/14/1 51/15/1 52/16/1
f 53/13/1 54/14/1 55/15/1 56/16/1
f 57/13/1 58/14/1 59/15/1 60/16/1
f 61/13/1 62/14/1 63/15/1 64/16/1
f 65/13/1 66/14/1 67/15/1 68/16/1
f 69/13/1 70/14/1 71/15/1 72/16/1
f 73/10/1 74/17/1 75/18/1 76/11/1
f 77/5/1 78/6/1 79/7/1 80/8/1
f 81/5/1 82/6/1 83/7/1 84/8/1
f 85/5/1 86/6/1 87/7/1 88/8/1
f 89/5/1 90/6/1 91/7/1 92/8/1
f 93/19/1 94/5/1 95/8/1 96/20/1
f 97/2/1 98/21/1 99/22/1 100/3/1
f 101/1/1 102/2/1 103/3/1 104/4/1
f 105/23/1 106/24/1 107/6/1 108/5/1
f 109/23/1 110/24/1 111/6/1 112/5/1
f 113/23/1 114/24/1 115/6/1 116/5/1
f 117/23/1 118/24/1 119/6/1 120/5/1
f 121/23/1 122/24/1 123/6/1 124/5/1
f 125/7/1 126/25/1 127/26/1 128/14/1
f 129/26/1 130/27/1 131/28/1 132/29/1
f 133/25/1 134/30/1 135/27/1 136/26/1
f 137/26/1 138/27/1 139/28/1 140/29/1
f 141/27/1 142/31/1 143/32/1 144/28/1
f 145/26/1 146/27/1 147/28/1 148/29/1
f 149/26/1 150/27/1 151/28/1 152/29/1
f 153/8/1 154/7/1 155/14/1 156/13/1
f 157/27/1 158/31/1 159/32/1 160/28/1
f 161/30/1 162/33/1 163/31/1 164/27/1
f 165/25/1 166/30/1 167/27/1 168/26/1
f 169/30/1 170/33/1 171/31/1 172/27/1
f 173/20/1 174/8/1 175/13/1 176/34/1
f 177/23/1 178/24/1 179/6/1 180/5/1
f 181/23/1 182/24/1 183/6/1 184/5/1
f 185/23/1 186/24/1 187/6/1 188/5/1
f 189/23/1 190/24/1 191/6/1 192/5/1
f 193/35/1 194/23/1 195/5/1 196/19/1
f 197/2/1 198/21/1 199/22/1 200/3/1
f 201/1/1 202/2/1 203/3/1 204/4/1
f 205/36/1 206/37/1 207/38/1 208/39/1
f 209/36/1 210/37/1 211/38/1 212/39/1
f 213/36/1 214/37/1 215/38/1 216/39/1
f 217/36/1 218/37/1 219/38/1 220/39/1
f 221/36/1 222/37/1 223/38/1 224/39/1
f 225/7/1 226/25/1 227/26/1 228/14/1
f 229/27/1 230/31/1 231/32/1 232/28/1
f 233/25/1 234/30/1 235/27/1 236/26/1
f 237/25/1 238/30/1 239/27/1 240/26/1
f 241/27/1 242/31/1 243/32/1 244/28/1
f 245/25/1 246/30/1 247/27/1 248/26/1
f 249/26/1 250/27/1 251/28/1 252/29/1
f 253/26/1 254/27/1 255/28/1 256/29/1
f 257/30/1 258/33/1 259/31/1 260/27/1
f 261/8/1 262/7/1 263/14/1 264/13/1
f 265/25/1 266/30/1 267/27/1 268/26/1
f 269/25/1 270/30/1 271/27/1 272/26/1
f 273/20/1 274/8/1 275/13/1 276/34/1
f 277/36/1 278/37/1 279/38/1 280/39/1
f 281/36/1 282/37/1 283/38/1 284/39/1
f 285/36/1 286/37/1 287/38/1 288/39/1
f 289/36/1 290/37/1 291/38/1 292/39/1
f 293/40/1 294/36/1 295/39/1 296/41/1
f 297/2/1 298/21/1 299/22/1 300/3/1
f 301/1/1 302/2/1 303/3/1 304/4/1
f 305/7/1 306/25/1 307/26/1 308/14/1
f 309/25/1 310/30/1 311/27/1 312/26/1
f 313/26/1 314/27/1 315/28/1 316/29/1
f 317/26/1 318/27/1 319/28/1 320/29/1
f 321/25/1 322/30/1 323/27/1 324/26/1
f 325/26/1 326/27/1 327/28/1 328/29/1
f 329/27/1 330/31/1 331/32/1 332/28/1
f 333/30/1 334/33/1 335/31/1 336/27/1
f 337/27/1 338/31/1 339/32/1 340/28/1
f 341/8/1 342/7/1 343/14/1 344/13/1
f 345/25/1 346/30/1 347/27/1 348/26/1
f 349/30/1 350/33/1 351/31/1 352/27/1
f 353/20/1 354/8/1 355/13/1 356/34/1
f 357/2/1 358/21/1 359/22/1 360/3/1
f 361/1/1 362/2/1 363/3/1 364/4/1
f 365/6/1 366/42/1 367/25/1 368/7/1
f 369/5/1 370/6/1 371/7/1 372/8/1
f 373/5/1 374/6/1 375/7/1 376/8/1
f 377/5/1 378/6/1 379/7/1 380/8/1
f 381/5/1 382/6/1 383/7/1 384/8/1
f 385/5/1 386/6/1 387/7/1 388/8/1
f 389/5/1 390/6/1 391/7/1 392/8/1
f 393/5/1 394/6/1 395/7/1 396/8/1
f 397/5/1 398/6/1 399/7/1 400/8/1
f 401/5/1 402/6/1 403/7/1 404/8/1
f 405/5/1 406/6/1 407/7/1 408/8/1
f 409/5/1 410/6/1 411/7/1 412/8/1
f 413/19/1 414/5/1 415/8/1 416/20/1
f 417/2/1 418/21/1 419/22/1 420/3/1
f 421/1/1 422/2/1 423/3/1 424/4/1
f 425/24/1 426/43/1 427/42/1 428/6/1
f 429/23/1 430/24/1 431/6/1 432/5/1
f 433/23/1 434/24/1 435/6/1 436/5/1
f 437/23/1 438/24/1 439/6/1 440/5/1
f 441/23/1 442/24/1 443/6/1 444/5/1
f 445/23/1 446/24/1 447/6/1 448/5/1
f 449/23/1 450/24/1 451/6/1 452/5/1
f 453/23/1 454/24/1 455/6/1 456/5/1
f 457/23/1 458/24/1 459/6/1 460/5/1
f 461/23/1 462/24/1 463/6/1 464/5/1
f 465/23/1 466/24/1 467/6/1 468/5/1
f 469/23/1 470/24/1 471/6/1 472/5/1
f 473/35/1 474/23/1 475/5/1 476/19/1
f 477/2/1 478/21/1 479/22/1 480/3/1
f 481/1/1 482/2/1 483/3/1 484/4/1
f 485/37/1 486/44/1 487/45/1 488/38/1
f 489/36/1 490/37/1 491/38/1 492/39/1
f 493/36/1 494/37/1 495/38/1 496/39/1
f 497/36/1 498/37/1 499/38/1 500/39/1
f 501/36/1 502/37/1 503/38/1 504/39/1
f 505/36/1 506/37/1 507/38/1 508/39/1
f 509/43/1 510/46/1 511/47/1 512/42/1
f 513/36/1 514/37/1 515/38/1 516/39/1
f 517/36/1 518/37/1 519/38/1 520/39/1
f 521/36/1 522/37/1 523/38/1 524/39/1
f 525/36/1 526/37/1 527/38/1 528/39/1
f 529/36/1 530/37/1 531/38/1 532/39/1
f 533/40/1 534/36/1 535/39/1 536/41/1
f 537/4/1 538/3/1 539/48/1 540/49/1
f 541/1/1 542/2/1 543/3/1 544/4/1
f 545/1/1 546/2/1 547/3/1 548/4/1
f 549/1/1 550/2/1 551/3/1 552/4/1
f 553/1/1 554/2/1 555/3/1 556/4/1
f 557/50/1 558/51/1 559/52/1 560/53/1
f 561/49/1 562/48/1 563/54/1 564/55/1
f 565/1/1 566/2/1 567/3/1 568/4/1
f 569/2/1 570/21/1 571/22/1 572/3/1
f 573/1/1 574/2/1 575/3/1 576/4/1
f 577/2/1 578/21/1 579/22/1 580/3/1
f 581/1/1 582/2/1 583/3/1 584/4/1
f 585/2/1 586/21/1 587/22/1 588/3/1
f 589/1/1 590/2/1 591/3/1 592/4/1
f 593/2/1 594/21/1 595/22/1 596/3/1
f 597/1/1 598/2/1 599/3/1 600/4/1
f 601/2/1 602/21/1 603/22/1 604/3/1
f 605/1/1 606/2/1 607/3/1 608/4/1
f 609/2/1 610/21/1 611/22/1 612/3/1
f 613/1/1 614/2/1 615/3/1 616/4/1
f 617/2/1 618/21/1 619/22/1 620/3/1
f 621/1/1 622/2/1 623/3/1 624/4/1
f 625/2/1 626/21/1 627/22/1 628/3/1
f 629/1/1 630/2/1 631/3/1 632/4/1
f 633/2/1 634/21/1 635/22/1 636/3/1
f 637/1/1 638/2/1 639/3/1 640/4/1
f 641/2/1 642/21/1 643/22/1 644/3/1
f 645/1/1 646/2/1 647/3/1 648/4/1
f 649/2/1 650/21/1 651/22/1 652/3/1
f 653/1/1 654/2/1 655/3/1 656/4/1
f 657/2/1 658/21/1 659/22/1 660/3/1
f 661/1/1 662/2/1 663/3/1 664/4/1
f 665/2/1 666/21/1 667/22/1 668/3/1
f 669/56/1 670/57/1 671/58/1 672/59/1
f 673/60/1 674/1/1 675/4/1 676/61/1
f 677/60/1 678/1/1 679/4/1 680/61/1
f 681/60/1 682/1/1 683/4/1 684/61/1
f 685/60/1 686/1/1 687/4/1 688/61/1
f 689/60/1 690/1/1 691/4/1 692/61/1
f 693/60/1 694/1/1 695/4/1 696/61/1
f 697/60/1 698/1/1 699/4/1 700/61/1
f 701/60/1 702/1/1 703/4/1 704/61/1
f 705/60/1 706/1/1 707/4/1 708/61/1
f 709/60/1 710/1/1 711/4/1 712/61/1
f 713/60/1 714/1/1 715/4/1 716/61/1
f 717/60/1 718/1/1 719/4/1 720/61/1
f 721/60/1 722/1/1 723/4/1 724/61/1
f 725/60/1 726/1/1 727/4/1 728/61/1
f 729/60/1 730/1/1 731/4/1 732/61/1
f 733/60/1 734/1/1 735/4/1 736/61/1
f 737/60/1 738/1/1 739/4/1 740/61/1
f 741/60/1 742/1/1 743/4/1 744/61/1
f 745/60/1 746/1/1 747/4/1 748/61/1
f 749/60/1 750/1/1 751/4/1 752/61/1
f 753/60/1 754/1/1 755/4/1 756/61/1
f 757/60/1 758/1/1 759/4/1 760/61/1
f 761/60/1 762/1/1 763/4/1 764/61/1
f 765/57/1 766/62/1 767/63/1 768/58/1

