# Tiled2Unity generated file. Do not modify by hand.
# Wavefront file for 'dung_base_mesh_0003.obj'

# Vertices (Count = 112)
v -352 -16 0
v -368 -16 0
v -368 0 0
v -352 0 0
v -320 -16 0
v -336 -16 0
v -336 0 0
v -320 0 0
v -256 -16 0
v -272 -16 0
v -272 0 0
v -256 0 0
v -224 -16 0
v -240 -16 0
v -240 0 0
v -224 0 0
v -160 -16 0
v -176 -16 0
v -176 0 0
v -160 0 0
v -128 -16 0
v -144 -16 0
v -144 0 0
v -128 0 0
v -96 -16 0
v -112 -16 0
v -112 0 0
v -96 0 0
v -64 -16 0
v -80 -16 0
v -80 0 0
v -64 0 0
v -352 -32 0
v -368 -32 0
v -368 -16 0
v -352 -16 0
v -320 -32 0
v -336 -32 0
v -336 -16 0
v -320 -16 0
v -256 -32 0
v -272 -32 0
v -272 -16 0
v -256 -16 0
v -224 -32 0
v -240 -32 0
v -240 -16 0
v -224 -16 0
v -192 -32 0
v -208 -32 0
v -208 -16 0
v -192 -16 0
v -160 -32 0
v -176 -32 0
v -176 -16 0
v -160 -16 0
v -128 -32 0
v -144 -32 0
v -144 -16 0
v -128 -16 0
v -96 -32 0
v -112 -32 0
v -112 -16 0
v -96 -16 0
v -64 -32 0
v -80 -32 0
v -80 -16 0
v -64 -16 0
v -320 -48 0
v -336 -48 0
v -336 -32 0
v -320 -32 0
v -256 -48 0
v -272 -48 0
v -272 -32 0
v -256 -32 0
v -128 -48 0
v -144 -48 0
v -144 -32 0
v -128 -32 0
v -64 -48 0
v -80 -48 0
v -80 -32 0
v -64 -32 0
v -272 -112 0
v -288 -112 0
v -288 -96 0
v -272 -96 0
v -96 -160 0
v -112 -160 0
v -112 -144 0
v -96 -144 0
v -288 -208 0
v -304 -208 0
v -304 -192 0
v -288 -192 0
v -112 -272 0
v -128 -272 0
v -128 -256 0
v -112 -256 0
v -176 -304 0
v -192 -304 0
v -192 -288 0
v -176 -288 0
v -320 -320 0
v -336 -320 0
v -336 -304 0
v -320 -304 0
v -80 -320 0
v -96 -320 0
v -96 -304 0
v -80 -304 0

# Texture cooridinates (Count = 32)
vt 0 0.76
vt 0.025 0.76
vt 0.025 0.8
vt 0 0.8
vt 0.15 0.96
vt 0.175 0.96
vt 0.175 1
vt 0.15 1
vt 0.225 0.96
vt 0.25 0.96
vt 0.25 1
vt 0.225 1
vt 0 0.72
vt 0.025 0.72
vt 0.15 0.92
vt 0.175 0.92
vt 0.225 0.92
vt 0.25 0.92
vt 0.25 0.72
vt 0.275 0.72
vt 0.275 0.76
vt 0.25 0.76
vt 0.15 0.88
vt 0.175 0.88
vt 0.225 0.88
vt 0.25 0.88
vt 0.15 0.8
vt 0.175 0.8
vt 0.175 0.84
vt 0.15 0.84
vt 0.125 0.8
vt 0.125 0.84

# Normal
vn 0 0 -1

# Mesh description
g dung_base_mesh_0003

# Faces
f 1/1/1 2/2/1 3/3/1 4/4/1
f 5/5/1 6/6/1 7/7/1 8/8/1
f 9/9/1 10/10/1 11/11/1 12/12/1
f 13/1/1 14/2/1 15/3/1 16/4/1
f 17/1/1 18/2/1 19/3/1 20/4/1
f 21/9/1 22/10/1 23/11/1 24/12/1
f 25/1/1 26/2/1 27/3/1 28/4/1
f 29/5/1 30/6/1 31/7/1 32/8/1
f 33/13/1 34/14/1 35/2/1 36/1/1
f 37/15/1 38/16/1 39/6/1 40/5/1
f 41/17/1 42/18/1 43/10/1 44/9/1
f 45/13/1 46/14/1 47/2/1 48/1/1
f 49/19/1 50/20/1 51/21/1 52/22/1
f 53/13/1 54/14/1 55/2/1 56/1/1
f 57/17/1 58/18/1 59/10/1 60/9/1
f 61/13/1 62/14/1 63/2/1 64/1/1
f 65/15/1 66/16/1 67/6/1 68/5/1
f 69/23/1 70/24/1 71/16/1 72/15/1
f 73/25/1 74/26/1 75/18/1 76/17/1
f 77/25/1 78/26/1 79/18/1 80/17/1
f 81/23/1 82/24/1 83/16/1 84/15/1
f 85/27/1 86/28/1 87/29/1 88/30/1
f 89/31/1 90/27/1 91/30/1 92/32/1
f 93/31/1 94/27/1 95/30/1 96/32/1
f 97/31/1 98/27/1 99/30/1 100/32/1
f 101/31/1 102/27/1 103/30/1 104/32/1
f 105/27/1 106/28/1 107/29/1 108/30/1
f 109/31/1 110/27/1 111/30/1 112/32/1

