# Tiled2Unity generated file. Do not modify by hand.
# Wavefront file for 'overworld_1_0_0_mesh_0002.obj'

# Vertices (Count = 892)
v -384 -16 0
v -400 -16 0
v -400 0 0
v -384 0 0
v -368 -16 0
v -384 -16 0
v -384 0 0
v -368 0 0
v -352 -16 0
v -368 -16 0
v -368 0 0
v -352 0 0
v -336 -16 0
v -352 -16 0
v -352 0 0
v -336 0 0
v -320 -16 0
v -336 -16 0
v -336 0 0
v -320 0 0
v -304 -16 0
v -320 -16 0
v -320 0 0
v -304 0 0
v -288 -16 0
v -304 -16 0
v -304 0 0
v -288 0 0
v -272 -16 0
v -288 -16 0
v -288 0 0
v -272 0 0
v -256 -16 0
v -272 -16 0
v -272 0 0
v -256 0 0
v -240 -16 0
v -256 -16 0
v -256 0 0
v -240 0 0
v -224 -16 0
v -240 -16 0
v -240 0 0
v -224 0 0
v -208 -16 0
v -224 -16 0
v -224 0 0
v -208 0 0
v -192 -16 0
v -208 -16 0
v -208 0 0
v -192 0 0
v -176 -16 0
v -192 -16 0
v -192 0 0
v -176 0 0
v -160 -16 0
v -176 -16 0
v -176 0 0
v -160 0 0
v -144 -16 0
v -160 -16 0
v -160 0 0
v -144 0 0
v -128 -16 0
v -144 -16 0
v -144 0 0
v -128 0 0
v -112 -16 0
v -128 -16 0
v -128 0 0
v -112 0 0
v -96 -16 0
v -112 -16 0
v -112 0 0
v -96 0 0
v -80 -16 0
v -96 -16 0
v -96 0 0
v -80 0 0
v -64 -16 0
v -80 -16 0
v -80 0 0
v -64 0 0
v -48 -16 0
v -64 -16 0
v -64 0 0
v -48 0 0
v -32 -16 0
v -48 -16 0
v -48 0 0
v -32 0 0
v -16 -16 0
v -32 -16 0
v -32 0 0
v -16 0 0
v 0 -16 0
v -16 -16 0
v -16 0 0
v 0 0 0
v 0 -32 0
v -16 -32 0
v -16 -16 0
v 0 -16 0
v 0 -48 0
v -16 -48 0
v -16 -32 0
v 0 -32 0
v -48 -64 0
v -64 -64 0
v -64 -48 0
v -48 -48 0
v -32 -64 0
v -48 -64 0
v -48 -48 0
v -32 -48 0
v 0 -64 0
v -16 -64 0
v -16 -48 0
v 0 -48 0
v -48 -80 0
v -64 -80 0
v -64 -64 0
v -48 -64 0
v -32 -80 0
v -48 -80 0
v -48 -64 0
v -32 -64 0
v 0 -80 0
v -16 -80 0
v -16 -64 0
v 0 -64 0
v 0 -96 0
v -16 -96 0
v -16 -80 0
v 0 -80 0
v -384 -112 0
v -400 -112 0
v -400 -96 0
v -384 -96 0
v -256 -112 0
v -272 -112 0
v -272 -96 0
v -256 -96 0
v -240 -112 0
v -256 -112 0
v -256 -96 0
v -240 -96 0
v -224 -112 0
v -240 -112 0
v -240 -96 0
v -224 -96 0
v -208 -112 0
v -224 -112 0
v -224 -96 0
v -208 -96 0
v -192 -112 0
v -208 -112 0
v -208 -96 0
v -192 -96 0
v 0 -112 0
v -16 -112 0
v -16 -96 0
v 0 -96 0
v -384 -128 0
v -400 -128 0
v -400 -112 0
v -384 -112 0
v -256 -128 0
v -272 -128 0
v -272 -112 0
v -256 -112 0
v -240 -128 0
v -256 -128 0
v -256 -112 0
v -240 -112 0
v -224 -128 0
v -240 -128 0
v -240 -112 0
v -224 -112 0
v -208 -128 0
v -224 -128 0
v -224 -112 0
v -208 -112 0
v -192 -128 0
v -208 -128 0
v -208 -112 0
v -192 -112 0
v 0 -128 0
v -16 -128 0
v -16 -112 0
v 0 -112 0
v -384 -144 0
v -400 -144 0
v -400 -128 0
v -384 -128 0
v -352 -144 0
v -368 -144 0
v -368 -128 0
v -352 -128 0
v -336 -144 0
v -352 -144 0
v -352 -128 0
v -336 -128 0
v -320 -144 0
v -336 -144 0
v -336 -128 0
v -320 -128 0
v -304 -144 0
v -320 -144 0
v -320 -128 0
v -304 -128 0
v -288 -144 0
v -304 -144 0
v -304 -128 0
v -288 -128 0
v -272 -144 0
v -288 -144 0
v -288 -128 0
v -272 -128 0
v -256 -144 0
v -272 -144 0
v -272 -128 0
v -256 -128 0
v -240 -144 0
v -256 -144 0
v -256 -128 0
v -240 -128 0
v -224 -144 0
v -240 -144 0
v -240 -128 0
v -224 -128 0
v -208 -144 0
v -224 -144 0
v -224 -128 0
v -208 -128 0
v -192 -144 0
v -208 -144 0
v -208 -128 0
v -192 -128 0
v 0 -144 0
v -16 -144 0
v -16 -128 0
v 0 -128 0
v -384 -160 0
v -400 -160 0
v -400 -144 0
v -384 -144 0
v -368 -160 0
v -384 -160 0
v -384 -144 0
v -368 -144 0
v -352 -160 0
v -368 -160 0
v -368 -144 0
v -352 -144 0
v -336 -160 0
v -352 -160 0
v -352 -144 0
v -336 -144 0
v -320 -160 0
v -336 -160 0
v -336 -144 0
v -320 -144 0
v -304 -160 0
v -320 -160 0
v -320 -144 0
v -304 -144 0
v -288 -160 0
v -304 -160 0
v -304 -144 0
v -288 -144 0
v -272 -160 0
v -288 -160 0
v -288 -144 0
v -272 -144 0
v -256 -160 0
v -272 -160 0
v -272 -144 0
v -256 -144 0
v -240 -160 0
v -256 -160 0
v -256 -144 0
v -240 -144 0
v -224 -160 0
v -240 -160 0
v -240 -144 0
v -224 -144 0
v -208 -160 0
v -224 -160 0
v -224 -144 0
v -208 -144 0
v -192 -160 0
v -208 -160 0
v -208 -144 0
v -192 -144 0
v 0 -160 0
v -16 -160 0
v -16 -144 0
v 0 -144 0
v -384 -176 0
v -400 -176 0
v -400 -160 0
v -384 -160 0
v -368 -176 0
v -384 -176 0
v -384 -160 0
v -368 -160 0
v -352 -176 0
v -368 -176 0
v -368 -160 0
v -352 -160 0
v -336 -176 0
v -352 -176 0
v -352 -160 0
v -336 -160 0
v -320 -176 0
v -336 -176 0
v -336 -160 0
v -320 -160 0
v -304 -176 0
v -320 -176 0
v -320 -160 0
v -304 -160 0
v -288 -176 0
v -304 -176 0
v -304 -160 0
v -288 -160 0
v -272 -176 0
v -288 -176 0
v -288 -160 0
v -272 -160 0
v -256 -176 0
v -272 -176 0
v -272 -160 0
v -256 -160 0
v -240 -176 0
v -256 -176 0
v -256 -160 0
v -240 -160 0
v -224 -176 0
v -240 -176 0
v -240 -160 0
v -224 -160 0
v -208 -176 0
v -224 -176 0
v -224 -160 0
v -208 -160 0
v -192 -176 0
v -208 -176 0
v -208 -160 0
v -192 -160 0
v 0 -176 0
v -16 -176 0
v -16 -160 0
v 0 -160 0
v -384 -192 0
v -400 -192 0
v -400 -176 0
v -384 -176 0
v -368 -192 0
v -384 -192 0
v -384 -176 0
v -368 -176 0
v -352 -192 0
v -368 -192 0
v -368 -176 0
v -352 -176 0
v -336 -192 0
v -352 -192 0
v -352 -176 0
v -336 -176 0
v -320 -192 0
v -336 -192 0
v -336 -176 0
v -320 -176 0
v -304 -192 0
v -320 -192 0
v -320 -176 0
v -304 -176 0
v -288 -192 0
v -304 -192 0
v -304 -176 0
v -288 -176 0
v -272 -192 0
v -288 -192 0
v -288 -176 0
v -272 -176 0
v -256 -192 0
v -272 -192 0
v -272 -176 0
v -256 -176 0
v -240 -192 0
v -256 -192 0
v -256 -176 0
v -240 -176 0
v -224 -192 0
v -240 -192 0
v -240 -176 0
v -224 -176 0
v -208 -192 0
v -224 -192 0
v -224 -176 0
v -208 -176 0
v -192 -192 0
v -208 -192 0
v -208 -176 0
v -192 -176 0
v 0 -192 0
v -16 -192 0
v -16 -176 0
v 0 -176 0
v -384 -208 0
v -400 -208 0
v -400 -192 0
v -384 -192 0
v -368 -208 0
v -384 -208 0
v -384 -192 0
v -368 -192 0
v -352 -208 0
v -368 -208 0
v -368 -192 0
v -352 -192 0
v -336 -208 0
v -352 -208 0
v -352 -192 0
v -336 -192 0
v -320 -208 0
v -336 -208 0
v -336 -192 0
v -320 -192 0
v -304 -208 0
v -320 -208 0
v -320 -192 0
v -304 -192 0
v -288 -208 0
v -304 -208 0
v -304 -192 0
v -288 -192 0
v -272 -208 0
v -288 -208 0
v -288 -192 0
v -272 -192 0
v -256 -208 0
v -272 -208 0
v -272 -192 0
v -256 -192 0
v -240 -208 0
v -256 -208 0
v -256 -192 0
v -240 -192 0
v -224 -208 0
v -240 -208 0
v -240 -192 0
v -224 -192 0
v -208 -208 0
v -224 -208 0
v -224 -192 0
v -208 -192 0
v -192 -208 0
v -208 -208 0
v -208 -192 0
v -192 -192 0
v 0 -208 0
v -16 -208 0
v -16 -192 0
v 0 -192 0
v -384 -224 0
v -400 -224 0
v -400 -208 0
v -384 -208 0
v -368 -224 0
v -384 -224 0
v -384 -208 0
v -368 -208 0
v -352 -224 0
v -368 -224 0
v -368 -208 0
v -352 -208 0
v -336 -224 0
v -352 -224 0
v -352 -208 0
v -336 -208 0
v -320 -224 0
v -336 -224 0
v -336 -208 0
v -320 -208 0
v -304 -224 0
v -320 -224 0
v -320 -208 0
v -304 -208 0
v -288 -224 0
v -304 -224 0
v -304 -208 0
v -288 -208 0
v -272 -224 0
v -288 -224 0
v -288 -208 0
v -272 -208 0
v -256 -224 0
v -272 -224 0
v -272 -208 0
v -256 -208 0
v -240 -224 0
v -256 -224 0
v -256 -208 0
v -240 -208 0
v -224 -224 0
v -240 -224 0
v -240 -208 0
v -224 -208 0
v 0 -224 0
v -16 -224 0
v -16 -208 0
v 0 -208 0
v -384 -240 0
v -400 -240 0
v -400 -224 0
v -384 -224 0
v -368 -240 0
v -384 -240 0
v -384 -224 0
v -368 -224 0
v -352 -240 0
v -368 -240 0
v -368 -224 0
v -352 -224 0
v -336 -240 0
v -352 -240 0
v -352 -224 0
v -336 -224 0
v -320 -240 0
v -336 -240 0
v -336 -224 0
v -320 -224 0
v -304 -240 0
v -320 -240 0
v -320 -224 0
v -304 -224 0
v -288 -240 0
v -304 -240 0
v -304 -224 0
v -288 -224 0
v -272 -240 0
v -288 -240 0
v -288 -224 0
v -272 -224 0
v -256 -240 0
v -272 -240 0
v -272 -224 0
v -256 -224 0
v -240 -240 0
v -256 -240 0
v -256 -224 0
v -240 -224 0
v -224 -240 0
v -240 -240 0
v -240 -224 0
v -224 -224 0
v 0 -240 0
v -16 -240 0
v -16 -224 0
v 0 -224 0
v -384 -256 0
v -400 -256 0
v -400 -240 0
v -384 -240 0
v -368 -256 0
v -384 -256 0
v -384 -240 0
v -368 -240 0
v -352 -256 0
v -368 -256 0
v -368 -240 0
v -352 -240 0
v -336 -256 0
v -352 -256 0
v -352 -240 0
v -336 -240 0
v -320 -256 0
v -336 -256 0
v -336 -240 0
v -320 -240 0
v -304 -256 0
v -320 -256 0
v -320 -240 0
v -304 -240 0
v -288 -256 0
v -304 -256 0
v -304 -240 0
v -288 -240 0
v -272 -256 0
v -288 -256 0
v -288 -240 0
v -272 -240 0
v -256 -256 0
v -272 -256 0
v -272 -240 0
v -256 -240 0
v -240 -256 0
v -256 -256 0
v -256 -240 0
v -240 -240 0
v 0 -256 0
v -16 -256 0
v -16 -240 0
v 0 -240 0
v -384 -272 0
v -400 -272 0
v -400 -256 0
v -384 -256 0
v -368 -272 0
v -384 -272 0
v -384 -256 0
v -368 -256 0
v -352 -272 0
v -368 -272 0
v -368 -256 0
v -352 -256 0
v -336 -272 0
v -352 -272 0
v -352 -256 0
v -336 -256 0
v -320 -272 0
v -336 -272 0
v -336 -256 0
v -320 -256 0
v -304 -272 0
v -320 -272 0
v -320 -256 0
v -304 -256 0
v -288 -272 0
v -304 -272 0
v -304 -256 0
v -288 -256 0
v -272 -272 0
v -288 -272 0
v -288 -256 0
v -272 -256 0
v -256 -272 0
v -272 -272 0
v -272 -256 0
v -256 -256 0
v -240 -272 0
v -256 -272 0
v -256 -256 0
v -240 -256 0
v 0 -272 0
v -16 -272 0
v -16 -256 0
v 0 -256 0
v -384 -288 0
v -400 -288 0
v -400 -272 0
v -384 -272 0
v -368 -288 0
v -384 -288 0
v -384 -272 0
v -368 -272 0
v -352 -288 0
v -368 -288 0
v -368 -272 0
v -352 -272 0
v -336 -288 0
v -352 -288 0
v -352 -272 0
v -336 -272 0
v -320 -288 0
v -336 -288 0
v -336 -272 0
v -320 -272 0
v 0 -288 0
v -16 -288 0
v -16 -272 0
v 0 -272 0
v -384 -304 0
v -400 -304 0
v -400 -288 0
v -384 -288 0
v -96 -304 0
v -112 -304 0
v -112 -288 0
v -96 -288 0
v -80 -304 0
v -96 -304 0
v -96 -288 0
v -80 -288 0
v -48 -304 0
v -64 -304 0
v -64 -288 0
v -48 -288 0
v -32 -304 0
v -48 -304 0
v -48 -288 0
v -32 -288 0
v 0 -304 0
v -16 -304 0
v -16 -288 0
v 0 -288 0
v -96 -320 0
v -112 -320 0
v -112 -304 0
v -96 -304 0
v -80 -320 0
v -96 -320 0
v -96 -304 0
v -80 -304 0
v -48 -320 0
v -64 -320 0
v -64 -304 0
v -48 -304 0
v -32 -320 0
v -48 -320 0
v -48 -304 0
v -32 -304 0
v 0 -320 0
v -16 -320 0
v -16 -304 0
v 0 -304 0
v 0 -336 0
v -16 -336 0
v -16 -320 0
v 0 -320 0
v -208 -352 0
v -224 -352 0
v -224 -336 0
v -208 -336 0
v -192 -352 0
v -208 -352 0
v -208 -336 0
v -192 -336 0
v -96 -352 0
v -112 -352 0
v -112 -336 0
v -96 -336 0
v -80 -352 0
v -96 -352 0
v -96 -336 0
v -80 -336 0
v -48 -352 0
v -64 -352 0
v -64 -336 0
v -48 -336 0
v -32 -352 0
v -48 -352 0
v -48 -336 0
v -32 -336 0
v 0 -352 0
v -16 -352 0
v -16 -336 0
v 0 -336 0
v -384 -368 0
v -400 -368 0
v -400 -352 0
v -384 -352 0
v -208 -368 0
v -224 -368 0
v -224 -352 0
v -208 -352 0
v -192 -368 0
v -208 -368 0
v -208 -352 0
v -192 -352 0
v -96 -368 0
v -112 -368 0
v -112 -352 0
v -96 -352 0
v -80 -368 0
v -96 -368 0
v -96 -352 0
v -80 -352 0
v -48 -368 0
v -64 -368 0
v -64 -352 0
v -48 -352 0
v -32 -368 0
v -48 -368 0
v -48 -352 0
v -32 -352 0
v 0 -368 0
v -16 -368 0
v -16 -352 0
v 0 -352 0
v -384 -384 0
v -400 -384 0
v -400 -368 0
v -384 -368 0
v 0 -384 0
v -16 -384 0
v -16 -368 0
v 0 -368 0
v -384 -400 0
v -400 -400 0
v -400 -384 0
v -384 -384 0
v -368 -400 0
v -384 -400 0
v -384 -384 0
v -368 -384 0
v -352 -400 0
v -368 -400 0
v -368 -384 0
v -352 -384 0
v -336 -400 0
v -352 -400 0
v -352 -384 0
v -336 -384 0
v -320 -400 0
v -336 -400 0
v -336 -384 0
v -320 -384 0
v -304 -400 0
v -320 -400 0
v -320 -384 0
v -304 -384 0
v -288 -400 0
v -304 -400 0
v -304 -384 0
v -288 -384 0
v -272 -400 0
v -288 -400 0
v -288 -384 0
v -272 -384 0
v -256 -400 0
v -272 -400 0
v -272 -384 0
v -256 -384 0
v -240 -400 0
v -256 -400 0
v -256 -384 0
v -240 -384 0
v -224 -400 0
v -240 -400 0
v -240 -384 0
v -224 -384 0
v -208 -400 0
v -224 -400 0
v -224 -384 0
v -208 -384 0
v -192 -400 0
v -208 -400 0
v -208 -384 0
v -192 -384 0
v -176 -400 0
v -192 -400 0
v -192 -384 0
v -176 -384 0
v -160 -400 0
v -176 -400 0
v -176 -384 0
v -160 -384 0
v -144 -400 0
v -160 -400 0
v -160 -384 0
v -144 -384 0
v -128 -400 0
v -144 -400 0
v -144 -384 0
v -128 -384 0
v -112 -400 0
v -128 -400 0
v -128 -384 0
v -112 -384 0
v -96 -400 0
v -112 -400 0
v -112 -384 0
v -96 -384 0
v -80 -400 0
v -96 -400 0
v -96 -384 0
v -80 -384 0
v -64 -400 0
v -80 -400 0
v -80 -384 0
v -64 -384 0
v -48 -400 0
v -64 -400 0
v -64 -384 0
v -48 -384 0
v -32 -400 0
v -48 -400 0
v -48 -384 0
v -32 -384 0
v -16 -400 0
v -32 -400 0
v -32 -384 0
v -16 -384 0
v 0 -400 0
v -16 -400 0
v -16 -384 0
v 0 -384 0

# Texture cooridinates (Count = 59)
vt 0.125 0.4444444
vt 0.15 0.4444444
vt 0.15 0.4722222
vt 0.125 0.4722222
vt 0.1 0.4444444
vt 0.1 0.4722222
vt 0.175 0.4722222
vt 0.2 0.4722222
vt 0.2 0.5
vt 0.175 0.5
vt 0.8 0.8888889
vt 0.825 0.8888889
vt 0.825 0.9166667
vt 0.8 0.9166667
vt 0.775 0.8888889
vt 0.775 0.9166667
vt 0.8 0.8611111
vt 0.825 0.8611111
vt 0.775 0.8611111
vt 0.125 0.5277778
vt 0.15 0.5277778
vt 0.15 0.5555556
vt 0.125 0.5555556
vt 0.4 0.1666667
vt 0.425 0.1666667
vt 0.425 0.1944444
vt 0.4 0.1944444
vt 0.375 0.1666667
vt 0.375 0.1944444
vt 0.35 0.1666667
vt 0.35 0.1944444
vt 0.15 0.5
vt 0.4 0.1388889
vt 0.425 0.1388889
vt 0.375 0.1388889
vt 0.35 0.1388889
vt 0.35 0.05555558
vt 0.375 0.05555558
vt 0.375 0.08333331
vt 0.35 0.08333331
vt 0.4 0.08333331
vt 0.4 0.1111111
vt 0.375 0.1111111
vt 0.35 0.1111111
vt 0.425 0.1111111
vt 0.125 0.5
vt 0.9 0.8333333
vt 0.925 0.8333333
vt 0.925 0.8611111
vt 0.9 0.8611111
vt 0.875 0.8333333
vt 0.875 0.8611111
vt 0.9 0.8055556
vt 0.925 0.8055556
vt 0.875 0.8055556
vt 0.075 0.5277778
vt 0.1 0.5277778
vt 0.1 0.5555556
vt 0.075 0.5555556

# Normal
vn 0 0 -1

# Mesh description
g overworld_1_0_0_mesh_0002

# Faces
f 1/1/1 2/2/1 3/3/1 4/4/1
f 5/1/1 6/2/1 7/3/1 8/4/1
f 9/1/1 10/2/1 11/3/1 12/4/1
f 13/1/1 14/2/1 15/3/1 16/4/1
f 17/1/1 18/2/1 19/3/1 20/4/1
f 21/1/1 22/2/1 23/3/1 24/4/1
f 25/1/1 26/2/1 27/3/1 28/4/1
f 29/1/1 30/2/1 31/3/1 32/4/1
f 33/1/1 34/2/1 35/3/1 36/4/1
f 37/1/1 38/2/1 39/3/1 40/4/1
f 41/1/1 42/2/1 43/3/1 44/4/1
f 45/1/1 46/2/1 47/3/1 48/4/1
f 49/1/1 50/2/1 51/3/1 52/4/1
f 53/1/1 54/2/1 55/3/1 56/4/1
f 57/1/1 58/2/1 59/3/1 60/4/1
f 61/1/1 62/2/1 63/3/1 64/4/1
f 65/1/1 66/2/1 67/3/1 68/4/1
f 69/1/1 70/2/1 71/3/1 72/4/1
f 73/1/1 74/2/1 75/3/1 76/4/1
f 77/1/1 78/2/1 79/3/1 80/4/1
f 81/1/1 82/2/1 83/3/1 84/4/1
f 85/1/1 86/2/1 87/3/1 88/4/1
f 89/1/1 90/2/1 91/3/1 92/4/1
f 93/1/1 94/2/1 95/3/1 96/4/1
f 97/5/1 98/1/1 99/4/1 100/6/1
f 101/7/1 102/8/1 103/9/1 104/10/1
f 105/7/1 106/8/1 107/9/1 108/10/1
f 109/11/1 110/12/1 111/13/1 112/14/1
f 113/15/1 114/11/1 115/14/1 116/16/1
f 117/7/1 118/8/1 119/9/1 120/10/1
f 121/17/1 122/18/1 123/12/1 124/11/1
f 125/19/1 126/17/1 127/11/1 128/15/1
f 129/7/1 130/8/1 131/9/1 132/10/1
f 133/7/1 134/8/1 135/9/1 136/10/1
f 137/20/1 138/21/1 139/22/1 140/23/1
f 141/24/1 142/25/1 143/26/1 144/27/1
f 145/28/1 146/24/1 147/27/1 148/29/1
f 149/28/1 150/24/1 151/27/1 152/29/1
f 153/28/1 154/24/1 155/27/1 156/29/1
f 157/30/1 158/28/1 159/29/1 160/31/1
f 161/7/1 162/8/1 163/9/1 164/10/1
f 165/3/1 166/7/1 167/10/1 168/32/1
f 169/33/1 170/34/1 171/25/1 172/24/1
f 173/35/1 174/33/1 175/24/1 176/28/1
f 177/35/1 178/33/1 179/24/1 180/28/1
f 181/35/1 182/33/1 183/24/1 184/28/1
f 185/36/1 186/35/1 187/28/1 188/30/1
f 189/7/1 190/8/1 191/9/1 192/10/1
f 193/3/1 194/7/1 195/10/1 196/32/1
f 197/24/1 198/25/1 199/26/1 200/27/1
f 201/28/1 202/24/1 203/27/1 204/29/1
f 205/28/1 206/24/1 207/27/1 208/29/1
f 209/28/1 210/24/1 211/27/1 212/29/1
f 213/28/1 214/24/1 215/27/1 216/29/1
f 217/28/1 218/24/1 219/27/1 220/29/1
f 221/37/1 222/38/1 223/39/1 224/40/1
f 225/35/1 226/33/1 227/24/1 228/28/1
f 229/35/1 230/33/1 231/24/1 232/28/1
f 233/35/1 234/33/1 235/24/1 236/28/1
f 237/36/1 238/35/1 239/28/1 240/30/1
f 241/7/1 242/8/1 243/9/1 244/10/1
f 245/3/1 246/7/1 247/10/1 248/32/1
f 249/24/1 250/25/1 251/26/1 252/27/1
f 253/37/1 254/38/1 255/39/1 256/40/1
f 257/35/1 258/33/1 259/24/1 260/28/1
f 261/35/1 262/33/1 263/24/1 264/28/1
f 265/35/1 266/33/1 267/24/1 268/28/1
f 269/35/1 270/33/1 271/24/1 272/28/1
f 273/35/1 274/33/1 275/24/1 276/28/1
f 277/35/1 278/33/1 279/24/1 280/28/1
f 281/35/1 282/33/1 283/24/1 284/28/1
f 285/35/1 286/33/1 287/24/1 288/28/1
f 289/35/1 290/33/1 291/24/1 292/28/1
f 293/36/1 294/35/1 295/28/1 296/30/1
f 297/7/1 298/8/1 299/9/1 300/10/1
f 301/3/1 302/7/1 303/10/1 304/32/1
f 305/33/1 306/34/1 307/25/1 308/24/1
f 309/35/1 310/33/1 311/24/1 312/28/1
f 313/35/1 314/33/1 315/24/1 316/28/1
f 317/35/1 318/33/1 319/24/1 320/28/1
f 321/35/1 322/33/1 323/24/1 324/28/1
f 325/35/1 326/33/1 327/24/1 328/28/1
f 329/35/1 330/33/1 331/24/1 332/28/1
f 333/35/1 334/33/1 335/24/1 336/28/1
f 337/35/1 338/33/1 339/24/1 340/28/1
f 341/35/1 342/33/1 343/24/1 344/28/1
f 345/35/1 346/33/1 347/24/1 348/28/1
f 349/36/1 350/35/1 351/28/1 352/30/1
f 353/7/1 354/8/1 355/9/1 356/10/1
f 357/3/1 358/7/1 359/10/1 360/32/1
f 361/33/1 362/34/1 363/25/1 364/24/1
f 365/35/1 366/33/1 367/24/1 368/28/1
f 369/35/1 370/33/1 371/24/1 372/28/1
f 373/35/1 374/33/1 375/24/1 376/28/1
f 377/35/1 378/33/1 379/24/1 380/28/1
f 381/35/1 382/33/1 383/24/1 384/28/1
f 385/35/1 386/33/1 387/24/1 388/28/1
f 389/35/1 390/33/1 391/24/1 392/28/1
f 393/35/1 394/33/1 395/24/1 396/28/1
f 397/35/1 398/33/1 399/24/1 400/28/1
f 401/35/1 402/33/1 403/24/1 404/28/1
f 405/36/1 406/35/1 407/28/1 408/30/1
f 409/7/1 410/8/1 411/9/1 412/10/1
f 413/3/1 414/7/1 415/10/1 416/32/1
f 417/33/1 418/34/1 419/25/1 420/24/1
f 421/35/1 422/33/1 423/24/1 424/28/1
f 425/35/1 426/33/1 427/24/1 428/28/1
f 429/35/1 430/33/1 431/24/1 432/28/1
f 433/35/1 434/33/1 435/24/1 436/28/1
f 437/35/1 438/33/1 439/24/1 440/28/1
f 441/35/1 442/33/1 443/24/1 444/28/1
f 445/35/1 446/33/1 447/24/1 448/28/1
f 449/35/1 450/33/1 451/24/1 452/28/1
f 453/39/1 454/41/1 455/42/1 456/43/1
f 457/43/1 458/42/1 459/33/1 460/35/1
f 461/44/1 462/43/1 463/35/1 464/36/1
f 465/7/1 466/8/1 467/9/1 468/10/1
f 469/3/1 470/7/1 471/10/1 472/32/1
f 473/33/1 474/34/1 475/25/1 476/24/1
f 477/35/1 478/33/1 479/24/1 480/28/1
f 481/35/1 482/33/1 483/24/1 484/28/1
f 485/35/1 486/33/1 487/24/1 488/28/1
f 489/35/1 490/33/1 491/24/1 492/28/1
f 493/35/1 494/33/1 495/24/1 496/28/1
f 497/35/1 498/33/1 499/24/1 500/28/1
f 501/35/1 502/33/1 503/24/1 504/28/1
f 505/35/1 506/33/1 507/24/1 508/28/1
f 509/36/1 510/35/1 511/28/1 512/30/1
f 513/7/1 514/8/1 515/9/1 516/10/1
f 517/3/1 518/7/1 519/10/1 520/32/1
f 521/33/1 522/34/1 523/25/1 524/24/1
f 525/35/1 526/33/1 527/24/1 528/28/1
f 529/35/1 530/33/1 531/24/1 532/28/1
f 533/35/1 534/33/1 535/24/1 536/28/1
f 537/35/1 538/33/1 539/24/1 540/28/1
f 541/35/1 542/33/1 543/24/1 544/28/1
f 545/35/1 546/33/1 547/24/1 548/28/1
f 549/35/1 550/33/1 551/24/1 552/28/1
f 553/39/1 554/41/1 555/42/1 556/43/1
f 557/44/1 558/43/1 559/35/1 560/36/1
f 561/7/1 562/8/1 563/9/1 564/10/1
f 565/3/1 566/7/1 567/10/1 568/32/1
f 569/33/1 570/34/1 571/25/1 572/24/1
f 573/35/1 574/33/1 575/24/1 576/28/1
f 577/35/1 578/33/1 579/24/1 580/28/1
f 581/35/1 582/33/1 583/24/1 584/28/1
f 585/35/1 586/33/1 587/24/1 588/28/1
f 589/35/1 590/33/1 591/24/1 592/28/1
f 593/35/1 594/33/1 595/24/1 596/28/1
f 597/35/1 598/33/1 599/24/1 600/28/1
f 601/36/1 602/35/1 603/28/1 604/30/1
f 605/7/1 606/8/1 607/9/1 608/10/1
f 609/3/1 610/7/1 611/10/1 612/32/1
f 613/33/1 614/34/1 615/25/1 616/24/1
f 617/35/1 618/33/1 619/24/1 620/28/1
f 621/35/1 622/33/1 623/24/1 624/28/1
f 625/39/1 626/41/1 627/42/1 628/43/1
f 629/43/1 630/42/1 631/33/1 632/35/1
f 633/43/1 634/42/1 635/33/1 636/35/1
f 637/43/1 638/42/1 639/33/1 640/35/1
f 641/43/1 642/42/1 643/33/1 644/35/1
f 645/44/1 646/43/1 647/35/1 648/36/1
f 649/7/1 650/8/1 651/9/1 652/10/1
f 653/3/1 654/7/1 655/10/1 656/32/1
f 657/42/1 658/45/1 659/34/1 660/33/1
f 661/43/1 662/42/1 663/33/1 664/35/1
f 665/43/1 666/42/1 667/33/1 668/35/1
f 669/44/1 670/43/1 671/35/1 672/36/1
f 673/7/1 674/8/1 675/9/1 676/10/1
f 677/46/1 678/32/1 679/21/1 680/20/1
f 681/47/1 682/48/1 683/49/1 684/50/1
f 685/51/1 686/47/1 687/50/1 688/52/1
f 689/47/1 690/48/1 691/49/1 692/50/1
f 693/51/1 694/47/1 695/50/1 696/52/1
f 697/7/1 698/8/1 699/9/1 700/10/1
f 701/53/1 702/54/1 703/48/1 704/47/1
f 705/55/1 706/53/1 707/47/1 708/51/1
f 709/53/1 710/54/1 711/48/1 712/47/1
f 713/55/1 714/53/1 715/47/1 716/51/1
f 717/7/1 718/8/1 719/9/1 720/10/1
f 721/7/1 722/8/1 723/9/1 724/10/1
f 725/11/1 726/12/1 727/13/1 728/14/1
f 729/15/1 730/11/1 731/14/1 732/16/1
f 733/47/1 734/48/1 735/49/1 736/50/1
f 737/51/1 738/47/1 739/50/1 740/52/1
f 741/47/1 742/48/1 743/49/1 744/50/1
f 745/51/1 746/47/1 747/50/1 748/52/1
f 749/7/1 750/8/1 751/9/1 752/10/1
f 753/20/1 754/21/1 755/22/1 756/23/1
f 757/17/1 758/18/1 759/12/1 760/11/1
f 761/19/1 762/17/1 763/11/1 764/15/1
f 765/53/1 766/54/1 767/48/1 768/47/1
f 769/55/1 770/53/1 771/47/1 772/51/1
f 773/53/1 774/54/1 775/48/1 776/47/1
f 777/55/1 778/53/1 779/47/1 780/51/1
f 781/7/1 782/8/1 783/9/1 784/10/1
f 785/3/1 786/7/1 787/10/1 788/32/1
f 789/7/1 790/8/1 791/9/1 792/10/1
f 793/56/1 794/57/1 795/58/1 796/59/1
f 797/4/1 798/3/1 799/32/1 800/46/1
f 801/4/1 802/3/1 803/32/1 804/46/1
f 805/4/1 806/3/1 807/32/1 808/46/1
f 809/4/1 810/3/1 811/32/1 812/46/1
f 813/4/1 814/3/1 815/32/1 816/46/1
f 817/4/1 818/3/1 819/32/1 820/46/1
f 821/4/1 822/3/1 823/32/1 824/46/1
f 825/4/1 826/3/1 827/32/1 828/46/1
f 829/4/1 830/3/1 831/32/1 832/46/1
f 833/4/1 834/3/1 835/32/1 836/46/1
f 837/4/1 838/3/1 839/32/1 840/46/1
f 841/4/1 842/3/1 843/32/1 844/46/1
f 845/4/1 846/3/1 847/32/1 848/46/1
f 849/4/1 850/3/1 851/32/1 852/46/1
f 853/4/1 854/3/1 855/32/1 856/46/1
f 857/4/1 858/3/1 859/32/1 860/46/1
f 861/4/1 862/3/1 863/32/1 864/46/1
f 865/4/1 866/3/1 867/32/1 868/46/1
f 869/4/1 870/3/1 871/32/1 872/46/1
f 873/4/1 874/3/1 875/32/1 876/46/1
f 877/4/1 878/3/1 879/32/1 880/46/1
f 881/4/1 882/3/1 883/32/1 884/46/1
f 885/4/1 886/3/1 887/32/1 888/46/1
f 889/57/1 890/20/1 891/23/1 892/58/1

